<svg width="0" height="0" class="hidden">
  <symbol xmlns="http://www.w3.org/2000/svg" viewBox="0 0 23 13" id="vk">
    <g>
      <g>
        <path d="M19.795 8.266c.763.744 1.568 1.444 2.253 2.263.302.364.588.74.807 1.162.31.6.03 1.26-.51 1.297l-3.35-.002c-.865.072-1.554-.275-2.134-.866-.464-.472-.893-.974-1.34-1.462a3.175 3.175 0 0 0-.602-.535c-.458-.297-.855-.206-1.116.27-.267.485-.327 1.022-.353 1.562-.036.788-.275.995-1.067 1.031-1.694.08-3.301-.176-4.795-1.03-1.316-.752-2.337-1.814-3.226-3.016C2.632 6.598 1.307 4.026.116 1.38-.152.786.044.466.702.454a91.942 91.942 0 0 1 3.28-.001c.445.006.74.261.91.68.592 1.453 1.316 2.834 2.224 4.115.242.341.489.682.84.922.389.266.684.178.867-.254.116-.274.167-.57.193-.863.087-1.01.098-2.019-.054-3.026C8.87 1.398 8.515.992 7.887.873c-.32-.06-.272-.18-.117-.363C8.039.195 8.292 0 8.797 0h3.787c.596.117.729.385.81.984l.004 4.201c-.007.232.116.92.534 1.074.335.11.555-.158.756-.37.907-.961 1.554-2.097 2.132-3.273.257-.518.477-1.055.691-1.591.158-.399.407-.595.856-.586l3.645.003c.108 0 .217.002.322.02.614.104.782.368.593.967-.3.94-.88 1.723-1.45 2.51-.607.84-1.257 1.651-1.86 2.496-.554.772-.51 1.16.178 1.83z"></path>
      </g>
    </g>
  </symbol>
  <symbol xmlns="http://www.w3.org/2000/svg" viewBox="0 0 16 13" id="twitter">
    <g>
      <g>
        <path  d="M15.559.24a6.602 6.602 0 0 1-2.086.797A3.283 3.283 0 0 0 7.88 4.03 9.319 9.319 0 0 1 1.114.6a3.26 3.26 0 0 0-.443 1.65c0 1.139.58 2.144 1.46 2.731A3.276 3.276 0 0 1 .643 4.57v.042a3.286 3.286 0 0 0 2.632 3.218 3.302 3.302 0 0 1-1.482.056 3.288 3.288 0 0 0 3.065 2.28A6.588 6.588 0 0 1 .783 11.57c-.265 0-.526-.016-.783-.045a9.296 9.296 0 0 0 5.032 1.474c6.037 0 9.338-5.001 9.338-9.34l-.01-.425c.643-.46 1.2-1.039 1.64-1.696-.589.26-1.22.438-1.885.517A3.301 3.301 0 0 0 15.56.24z"></path>
      </g>
    </g>
  </symbol>
  <symbol viewBox="0 0 0 0" id="sprite">
    <symbol xmlns="http://www.w3.org/2000/svg" viewBox="0 0 16 13" id="twitter">
      <g>
        <g>
          <path d="M15.559.24a6.602 6.602 0 0 1-2.086.797A3.283 3.283 0 0 0 7.88 4.03 9.319 9.319 0 0 1 1.114.6a3.26 3.26 0 0 0-.443 1.65c0 1.139.58 2.144 1.46 2.731A3.276 3.276 0 0 1 .643 4.57v.042a3.286 3.286 0 0 0 2.632 3.218 3.302 3.302 0 0 1-1.482.056 3.288 3.288 0 0 0 3.065 2.28A6.588 6.588 0 0 1 .783 11.57c-.265 0-.526-.016-.783-.045a9.296 9.296 0 0 0 5.032 1.474c6.037 0 9.338-5.001 9.338-9.34l-.01-.425c.643-.46 1.2-1.039 1.64-1.696-.589.26-1.22.438-1.885.517A3.301 3.301 0 0 0 15.56.24z"></path>
        </g>
      </g>
    </symbol>
    <symbol xmlns="http://www.w3.org/2000/svg" viewBox="0 0 15 15" id="ist">
      <g>
        <g>
          <path d="M13.075-.001C14.134-.001 15 .783 15 1.924v11.15C15 14.217 14.134 15 13.075 15H1.925c-1.06 0-1.926-.784-1.926-1.925V1.924C0 .783.865-.001 1.925-.001zM10.252 2.34v1.616c0 .372.303.676.675.676h1.695a.677.677 0 0 0 .676-.676V2.341a.677.677 0 0 0-.676-.676h-1.695a.677.677 0 0 0-.675.676zm1.733 4.002c.124.408.192.84.192 1.287 0 2.495-2.088 4.518-4.663 4.518S2.851 10.125 2.851 7.63c0-.447.068-.88.193-1.287H1.666v6.336c0 .329.269.597.597.597h10.446a.598.598 0 0 0 .596-.597V6.343zM7.514 4.548C5.85 4.548 4.5 5.855 4.5 7.467s1.35 2.92 3.013 2.92c1.664 0 3.013-1.308 3.013-2.92 0-1.612-1.349-2.92-3.013-2.92z"></path>
        </g>
      </g>
    </symbol>
    <symbol xmlns="http://www.w3.org/2000/svg" viewBox="0 0 8 19" id="fb">
      <g>
        <g>
          <path d="M1.73 3.68v2.615H0v3.199h1.73V19H5.28V9.494h2.384s.223-1.533.331-3.21H5.295V4.095c0-.326.387-.766.77-.766H8V0H5.369c-3.728 0-3.64 3.202-3.64 3.68z"></path>
        </g>
      </g>
    </symbol>
    <symbol xmlns="http://www.w3.org/2000/svg" viewBox="0 0 7 11" id="arrow-left">
      <g>
        <g>
          <path d="M.252 4.982L5.535.248a.933.933 0 0 1 1.217 0 .716.716 0 0 1 0 1.09l-4.675 4.19 4.675 4.189a.716.716 0 0 1 0 1.09c-.336.3-.881.3-1.217 0L.252 6.073A.73.73 0 0 1 0 5.527a.73.73 0 0 1 .252-.545z"></path>
        </g>
      </g>
    </symbol>
    <symbol xmlns="http://www.w3.org/2000/svg" viewBox="0 0 6 10" id="arrow">
      <g>
        <g>
          <path d="M5.784 5.47L1.256 9.774a.765.765 0 0 1-1.043 0 .677.677 0 0 1 0-.991L4.22 4.975.213 1.166a.677.677 0 0 1 0-.991.765.765 0 0 1 1.043 0l4.528 4.304A.683.683 0 0 1 6 4.975c0 .179-.072.358-.216.495z"></path>
        </g>
      </g>
    </symbol>
  </symbol>
  <symbol xmlns="http://www.w3.org/2000/svg" viewBox="0 0 12 19" id="ok">
    <g>
      <g>
        <path  d="M5.016 13.382c-1.55-.153-2.946-.516-4.142-1.405-.149-.11-.302-.218-.437-.341-.524-.478-.577-1.025-.162-1.59.354-.482.949-.611 1.567-.334.12.054.234.12.343.193 2.23 1.456 5.292 1.496 7.53.065a2.07 2.07 0 0 1 .733-.36c.534-.13 1.032.056 1.318.5.328.507.324 1.002-.08 1.396-.618.603-1.363 1.04-2.19 1.345-.781.288-1.638.433-2.485.53.128.132.188.197.268.273 1.15 1.1 2.307 2.194 3.454 3.296.39.376.472.842.257 1.279-.235.478-.762.791-1.278.758-.328-.022-.583-.176-.81-.393-.868-.831-1.753-1.646-2.604-2.493-.248-.246-.367-.2-.585.014-.874.855-1.762 1.697-2.655 2.534-.401.376-.879.444-1.344.23-.494-.228-.809-.708-.785-1.19.017-.327.186-.576.421-.8 1.14-1.08 2.275-2.164 3.411-3.247.076-.072.146-.148.255-.26zm.944-3.765C3.196 9.607.93 7.43.946 4.798.96 2.138 3.23-.007 6.02.001c2.797.007 5.042 2.182 5.028 4.87-.014 2.626-2.296 4.755-5.089 4.746zm2.513-4.813C8.468 3.498 7.373 2.458 6 2.456c-1.383-.001-2.488 1.058-2.477 2.377.01 1.301 1.114 2.334 2.49 2.33 1.371-.005 2.463-1.052 2.459-2.359z"></path>
      </g>
    </g>
  </symbol>
  <symbol xmlns="http://www.w3.org/2000/svg" viewBox="0 0 15 15" id="ist">
    <g>
      <g>
        <path  d="M13.075-.001C14.134-.001 15 .783 15 1.924v11.15C15 14.217 14.134 15 13.075 15H1.925c-1.06 0-1.926-.784-1.926-1.925V1.924C0 .783.865-.001 1.925-.001zM10.252 2.34v1.616c0 .372.303.676.675.676h1.695a.677.677 0 0 0 .676-.676V2.341a.677.677 0 0 0-.676-.676h-1.695a.677.677 0 0 0-.675.676zm1.733 4.002c.124.408.192.84.192 1.287 0 2.495-2.088 4.518-4.663 4.518S2.851 10.125 2.851 7.63c0-.447.068-.88.193-1.287H1.666v6.336c0 .329.269.597.597.597h10.446a.598.598 0 0 0 .596-.597V6.343zM7.514 4.548C5.85 4.548 4.5 5.855 4.5 7.467s1.35 2.92 3.013 2.92c1.664 0 3.013-1.308 3.013-2.92 0-1.612-1.349-2.92-3.013-2.92z"></path>
      </g>
    </g>
  </symbol>
  <symbol xmlns="http://www.w3.org/2000/svg" viewBox="0 0 8 19" id="fb">
    <g>
      <g>
        <path  d="M1.73 3.68v2.615H0v3.199h1.73V19H5.28V9.494h2.384s.223-1.533.331-3.21H5.295V4.095c0-.326.387-.766.77-.766H8V0H5.369c-3.728 0-3.64 3.202-3.64 3.68z"></path>
      </g>
    </g>
  </symbol>
  <symbol xmlns="http://www.w3.org/2000/svg" viewBox="0 0 7 11" id="arrow-left">
    <g>
      <g>
        <path  d="M.252 4.982L5.535.248a.933.933 0 0 1 1.217 0 .716.716 0 0 1 0 1.09l-4.675 4.19 4.675 4.189a.716.716 0 0 1 0 1.09c-.336.3-.881.3-1.217 0L.252 6.073A.73.73 0 0 1 0 5.527a.73.73 0 0 1 .252-.545z"></path>
      </g>
    </g>
  </symbol>
  <symbol xmlns="http://www.w3.org/2000/svg" viewBox="0 0 6 10" id="arrow">
    <g>
      <g>
        <path d="M5.784 5.47L1.256 9.774a.765.765 0 0 1-1.043 0 .677.677 0 0 1 0-.991L4.22 4.975.213 1.166a.677.677 0 0 1 0-.991.765.765 0 0 1 1.043 0l4.528 4.304A.683.683 0 0 1 6 4.975c0 .179-.072.358-.216.495z"></path>
      </g>
    </g>
  </symbol>
</svg>